<!--?xml version="1.0" encoding="utf-8"?-->
<!-- Svg Vector Icons : http://www.onlinewebfonts.com/icon -->

<svg version="1.1" xmlns="http://www.w3.org/2000/svg" xmlns:xlink="http://www.w3.org/1999/xlink" x="0px" y="0px" viewBox="0 0 256 256" enable-background="new 0 0 256 256" xml:space="preserve">
<metadata> Svg Vector Icons : http://www.onlinewebfonts.com/icon </metadata>
<g><g><g><path fill="#ff00ff" data-title="Layer 0" xs="0" d="M109.6,51.8C99.7,72.1,91.3,88.8,91,89c-0.2,0.2-18.2,2.9-40,6c-21.7,3.1-40.1,5.9-40.7,6c-1.1,0.3,0.4,1.8,17.9,18.9c10.5,10.2,23.8,23.3,29.7,28.9l10.6,10.3l-7,40.8c-3.8,22.4-6.9,40.8-6.8,40.9c0.1,0,16.6-8.6,36.8-19.2l36.6-19.3l36.7,19.3c20.1,10.6,36.7,19.2,36.8,19.2c0.1-0.1-3-18.5-6.9-41l-7-40.9l1.1-1c0.6-0.5,14-13.5,29.7-28.9c26.1-25.4,28.6-28,27.5-28.2c-0.7-0.1-19-2.8-40.8-6c-21.7-3.1-39.8-5.9-40-6c-0.3-0.2-8.7-16.9-18.6-37.1C136.4,31.6,128.1,15,128,15S119.6,31.6,109.6,51.8z M139.4,86.4l11.1,22.5l4.7,0.7c2.6,0.4,13.8,2,24.9,3.6c11,1.6,20.1,3.1,20.1,3.2s-8.1,8.1-18,17.7c-15.8,15.4-17.9,17.6-17.7,18.6c1.3,6.5,8.2,48.1,8,48.3c-0.1,0.1-10.2-5-22.3-11.4L128,178l-22.2,11.6c-12.1,6.4-22.2,11.5-22.3,11.4c-0.2-0.2,6.7-42.1,8-48.3c0.2-1-1.9-3.2-17.7-18.6c-9.9-9.6-17.9-17.5-17.9-17.7c0-0.1,9.1-1.6,20.2-3.2c11-1.6,22.2-3.3,24.8-3.6l4.7-0.7l11.1-22.5c6.1-12.4,11.2-22.5,11.4-22.5C128.1,63.9,133.2,74,139.4,86.4z"/></g></g></g>
</svg>